<svg width="1440" height="2889" viewBox="0 0 1440 2889" fill="none" xmlns="http://www.w3.org/2000/svg">
<g clip-path="url(#clip0_67_91)">
<path d="M844.56 156.234C810.53 184.702 783.771 249.265 763.411 334.163C742.76 418.553 728.217 522.769 752.649 579.198C777.081 635.627 840.488 643.761 894.296 662.062C947.814 679.855 991.734 707.307 1030.71 691.039C1069.39 674.772 1103.42 614.784 1135.71 541.579C1168.28 467.865 1199.41 381.442 1197.95 293.494C1196.79 205.546 1163.05 116.581 1117.97 91.1622C1073.17 66.2521 1017.04 104.888 968.465 120.139C919.892 135.899 878.59 127.765 844.56 156.234Z" fill="#7651E8" fill-opacity="0.08"/>
<path d="M-141.338 891.985C-117.161 957.045 -64.3293 1004.03 -13.3826 1045.32C37.5642 1086.61 86.9691 1121.71 163.914 1161.35C240.024 1201.14 344.509 1245.32 424.753 1219.28C504.654 1193.74 560.999 1096.98 550.379 1011.38C539.265 925.444 461.871 849.676 402.915 792.581C343.466 735.144 302.949 696.725 241.295 624.597C179.298 552.962 96.6573 447.961 27.3999 448.752C-42.3501 449.201 -99.2094 555.1 -129.706 649.37C-160.203 743.64 -165.172 826.432 -141.338 891.985Z" fill="#656AFF" fill-opacity="0.08"/>
<path d="M1204.66 182.985C1228.84 248.045 1281.67 295.031 1332.62 336.321C1383.56 377.61 1432.97 412.711 1509.91 452.352C1586.02 492.142 1690.51 536.324 1770.75 510.284C1850.65 484.736 1907 387.982 1896.38 302.384C1885.26 216.444 1807.87 140.676 1748.91 83.5813C1689.47 26.1445 1648.95 -12.2753 1587.29 -84.4031C1525.3 -156.038 1442.66 -261.039 1373.4 -260.248C1303.65 -259.799 1246.79 -153.9 1216.29 -59.6301C1185.8 34.6401 1180.83 117.432 1204.66 182.985Z" fill="#656AFF" fill-opacity="0.08"/>
<path d="M1692.8 1052.92C1747.95 1010.78 1777.43 946.519 1802.02 885.727C1826.61 824.934 1845.73 767.426 1861.15 682.253C1876.95 597.835 1888.65 484.998 1840.29 415.874C1792.49 346.933 1683.49 321.338 1604.74 356.521C1525.81 392.276 1475.98 488.441 1438.61 561.513C1401.07 635.157 1376.17 685.137 1325.22 765.185C1274.84 845.417 1198.59 955.146 1219.6 1021.15C1240.42 1087.72 1358.31 1111.13 1457.38 1112.73C1556.45 1114.33 1637.08 1094.88 1692.8 1052.92Z" fill="#656AFF" fill-opacity="0.08"/>
<path d="M604.592 729.756C604.592 838.006 722.576 963 845.234 963C968.281 963 1096 838.006 1096 729.756C1096 621.506 968.281 530 845.234 530C722.576 530 604.592 621.506 604.592 729.756Z" fill="#59B5FF" fill-opacity="0.08"/>
<path d="M167.592 181.756C167.592 290.006 285.576 415 408.234 415C531.281 415 659 290.006 659 181.756C659 73.5063 531.281 -18 408.234 -18C285.576 -18 167.592 73.5063 167.592 181.756Z" fill="#59B5FF" fill-opacity="0.08"/>
<path d="M844.688 891.234C810.658 919.702 783.899 984.265 763.539 1069.16C742.889 1153.55 728.346 1257.77 752.778 1314.2C777.21 1370.63 840.616 1378.76 894.425 1397.06C947.943 1414.86 991.862 1442.31 1030.84 1426.04C1069.52 1409.77 1103.55 1349.78 1135.84 1276.58C1168.41 1202.86 1199.53 1116.44 1198.08 1028.49C1196.92 940.546 1163.18 851.581 1118.09 826.162C1073.3 801.252 1017.17 839.888 968.593 855.139C920.02 870.899 878.719 862.765 844.688 891.234Z" fill="#7651E8" fill-opacity="0.08"/>
<path d="M-457.338 1408.98C-433.161 1474.05 -380.329 1521.03 -329.383 1562.32C-278.436 1603.61 -229.031 1638.71 -152.086 1678.35C-75.976 1718.14 28.5092 1762.32 108.753 1736.28C188.654 1710.74 244.999 1613.98 234.379 1528.38C223.265 1442.44 145.871 1366.68 86.9147 1309.58C27.4663 1252.14 -13.0512 1213.72 -74.7052 1141.6C-136.702 1069.96 -219.343 964.961 -288.6 965.752C-358.35 966.201 -415.209 1072.1 -445.706 1166.37C-476.203 1260.64 -481.172 1343.43 -457.338 1408.98Z" fill="#656AFF" fill-opacity="0.08"/>
<path d="M1204.66 1145.98C1228.84 1211.05 1281.67 1258.03 1332.62 1299.32C1383.56 1340.61 1432.97 1375.71 1509.91 1415.35C1586.02 1455.14 1690.51 1499.32 1770.75 1473.28C1850.65 1447.74 1907 1350.98 1896.38 1265.38C1885.26 1179.44 1807.87 1103.68 1748.91 1046.58C1689.47 989.144 1648.95 950.725 1587.29 878.597C1525.3 806.962 1442.66 701.961 1373.4 702.752C1303.65 703.201 1246.79 809.1 1216.29 903.37C1185.8 997.64 1180.83 1080.43 1204.66 1145.98Z" fill="#656AFF" fill-opacity="0.08"/>
<path d="M657.797 1833.37C712.946 1791.23 742.432 1726.97 767.022 1666.18C791.612 1605.38 810.734 1547.87 826.147 1462.7C841.946 1378.28 853.649 1265.45 805.285 1196.32C757.493 1127.38 648.493 1101.79 569.741 1136.97C490.805 1172.72 440.975 1268.89 403.613 1341.96C366.067 1415.61 341.172 1465.59 290.221 1545.63C239.842 1625.87 163.591 1735.6 184.597 1801.6C205.419 1868.17 323.315 1891.58 422.382 1893.18C521.45 1894.78 602.077 1875.33 657.797 1833.37Z" fill="#656AFF" fill-opacity="0.08"/>
<path d="M850 1959.76C850 2068.01 967.985 2193 1090.64 2193C1213.69 2193 1341.41 2068.01 1341.41 1959.76C1341.41 1851.51 1213.69 1760 1090.64 1760C967.985 1760 850 1851.51 850 1959.76Z" fill="#59B5FF" fill-opacity="0.08"/>
<path d="M1198 1498.76C1198 1607.01 1315.98 1732 1438.64 1732C1561.69 1732 1689.41 1607.01 1689.41 1498.76C1689.41 1390.51 1561.69 1299 1438.64 1299C1315.98 1299 1198 1390.51 1198 1498.76Z" fill="#59B5FF" fill-opacity="0.08"/>
<path d="M844.56 2732.77C810.53 2704.3 783.771 2639.73 763.411 2554.84C742.76 2470.45 728.217 2366.23 752.649 2309.8C777.081 2253.37 840.488 2245.24 894.296 2226.94C947.814 2209.14 991.734 2181.69 1030.71 2197.96C1069.39 2214.23 1103.42 2274.22 1135.71 2347.42C1168.28 2421.14 1199.41 2507.56 1197.95 2595.51C1196.79 2683.45 1163.05 2772.42 1117.97 2797.84C1073.17 2822.75 1017.04 2784.11 968.465 2768.86C919.892 2753.1 878.59 2761.24 844.56 2732.77Z" fill="#7651E8" fill-opacity="0.08"/>
<path d="M-141.338 1997.02C-117.161 1931.95 -64.3293 1884.97 -13.3826 1843.68C37.5642 1802.39 86.9691 1767.29 163.914 1727.65C240.024 1687.86 344.509 1643.68 424.753 1669.72C504.654 1695.26 560.999 1792.02 550.379 1877.62C539.265 1963.56 461.871 2039.32 402.915 2096.42C343.466 2153.86 302.949 2192.28 241.295 2264.4C179.298 2336.04 96.6573 2441.04 27.3999 2440.25C-42.3501 2439.8 -99.2094 2333.9 -129.706 2239.63C-160.203 2145.36 -165.172 2062.57 -141.338 1997.02Z" fill="#656AFF" fill-opacity="0.08"/>
<path d="M1204.66 2706.02C1228.84 2640.95 1281.67 2593.97 1332.62 2552.68C1383.56 2511.39 1432.97 2476.29 1509.91 2436.65C1586.02 2396.86 1690.51 2352.68 1770.75 2378.72C1850.65 2404.26 1907 2501.02 1896.38 2586.62C1885.26 2672.56 1807.87 2748.32 1748.91 2805.42C1689.47 2862.86 1648.95 2901.28 1587.29 2973.4C1525.3 3045.04 1442.66 3150.04 1373.4 3149.25C1303.65 3148.8 1246.79 3042.9 1216.29 2948.63C1185.8 2854.36 1180.83 2771.57 1204.66 2706.02Z" fill="#656AFF" fill-opacity="0.08"/>
<path d="M1692.8 1836.08C1747.95 1878.22 1777.43 1942.48 1802.02 2003.27C1826.61 2064.07 1845.73 2121.57 1861.15 2206.75C1876.95 2291.17 1888.65 2404 1840.29 2473.13C1792.49 2542.07 1683.49 2567.66 1604.74 2532.48C1525.81 2496.72 1475.98 2400.56 1438.61 2327.49C1401.07 2253.84 1376.17 2203.86 1325.22 2123.81C1274.84 2043.58 1198.59 1933.85 1219.6 1867.85C1240.42 1801.28 1358.31 1777.87 1457.38 1776.27C1556.45 1774.67 1637.08 1794.12 1692.8 1836.08Z" fill="#656AFF" fill-opacity="0.08"/>
<path d="M604.592 2159.24C604.592 2050.99 722.576 1926 845.234 1926C968.281 1926 1096 2050.99 1096 2159.24C1096 2267.49 968.281 2359 845.234 2359C722.576 2359 604.592 2267.49 604.592 2159.24Z" fill="#59B5FF" fill-opacity="0.08"/>
<path d="M167.592 2707.24C167.592 2598.99 285.576 2474 408.234 2474C531.281 2474 659 2598.99 659 2707.24C659 2815.49 531.281 2907 408.234 2907C285.576 2907 167.592 2815.49 167.592 2707.24Z" fill="#59B5FF" fill-opacity="0.08"/>
</g>
<defs>
<clipPath id="clip0_67_91">
<rect width="1440" height="2889" fill="white"/>
</clipPath>
</defs>
</svg>
