<svg viewBox="0 0 513 200" fill="none" xmlns="http://www.w3.org/2000/svg">
<g clip-path="url(#clip0_1_11)">
<path d="M156.695 0H199.43L185.185 28.49H142.45L156.695 0Z" fill="#7651E8" fill-opacity="0.75"/>
<path fill-rule="evenodd" clip-rule="evenodd" d="M99.7151 199.43L0 0H42.7351L99.7151 113.96L121.083 156.695L99.7151 199.43Z" fill="#7651E8" fill-opacity="0.75"/>
<path d="M103.276 106.838L124.644 149.573L181.624 35.6126H138.889L103.276 106.838Z" fill="#7651E8" fill-opacity="0.75"/>
<path d="M327.636 0H370.369L356.126 28.49H313.39L327.636 0Z" fill="#656AFF" fill-opacity="0.75"/>
<path fill-rule="evenodd" clip-rule="evenodd" d="M270.656 113.96L213.675 0L192.308 42.7351L270.656 199.43L292.023 156.695L270.656 113.96ZM295.585 149.573L352.564 35.6126H309.828L274.215 106.838L295.585 149.573Z" fill="#656AFF" fill-opacity="0.75"/>
<path fill-rule="evenodd" clip-rule="evenodd" d="M470.085 99.7151C470.085 128.205 455.841 156.695 398.862 156.695H327.664L306.282 199.43H398.862C484.331 199.43 512.821 156.695 512.821 99.7151C512.821 44.3364 485.91 2.41345 405.933 0.10064L405.921 0.127133L405.982 0.128277L384.679 42.7351H398.862C455.841 42.7351 470.085 71.2251 470.085 99.7151ZM398.862 0H384.615L363.249 42.7351H377.492L398.862 0ZM306.267 156.695H320.513L299.146 199.43H284.9L306.267 156.695Z" fill="#59B5FF" fill-opacity="0.75"/>
</g>
<defs>
<clipPath id="clip0_1_11">
<rect width="512.82" height="200" fill="white"/>
</clipPath>
</defs>
</svg>
