<svg viewBox="0 0 513 200" fill="none" xmlns="http://www.w3.org/2000/svg">
<g clip-path="url(#clip0_38_63)">
<path d="M144.525 27.208L157.487 1.28206H197.356L184.393 27.208H144.525ZM99.7151 196.563L2.0744 1.28206H41.9426L98.5685 114.533L119.649 156.695L99.7151 196.563ZM179.549 36.8946L124.644 146.706L104.71 106.838L139.681 36.8946H179.549Z" stroke="#E6E6E6"/>
<path d="M315.464 27.208L328.428 1.28206H368.295L355.333 27.208H315.464ZM270.656 196.563L193.741 42.7351L213.675 2.86675L269.508 114.533L290.59 156.695L270.656 196.563ZM310.621 36.8946H350.49L295.585 146.706L275.649 106.838L310.621 36.8946Z" stroke="#E6E6E6"/>
<path d="M387.754 41.4531L407.777 1.40929C447.064 2.69542 473.141 13.6526 489.436 30.889C505.856 48.26 512.538 72.2174 512.538 99.7151C512.538 128.007 505.467 152.553 487.985 170.034C470.505 187.515 442.397 198.148 399.862 198.148H309.356L329.454 157.977H399.862C428.549 157.977 446.738 150.804 457.746 139.795C468.756 128.786 472.367 114.158 472.367 99.7151C472.367 85.2726 468.756 70.6439 457.746 59.6349C446.738 48.6259 428.549 41.4531 399.862 41.4531H387.754ZM366.323 41.4531L386.408 1.28206H397.787L377.7 41.4531H366.323ZM287.974 198.148L308.059 157.977H319.438L299.354 198.148H287.974Z" stroke="#E6E6E6"/>
</g>
<defs>
<clipPath id="clip0_38_63">
<rect width="512.82" height="200" fill="white"/>
</clipPath>
</defs>
</svg>
